<svg width="692" height="150" viewBox="0 0 692 150" fill="none" xmlns="http://www.w3.org/2000/svg">
<g clip-path="url(#clip0_1_4)">
<path d="M40 125.273C32.4242 125.273 25.9394 123.773 20.5455 120.773C15.1515 117.742 11.0152 113.53 8.13636 108.136C5.25758 102.712 3.81818 96.4242 3.81818 89.2727C3.81818 82.1212 5.25758 75.8485 8.13636 70.4545C11.0152 65.0303 15.1515 60.8182 20.5455 57.8182C25.9394 54.7879 32.4242 53.2727 40 53.2727C46.8485 53.2727 52.7727 54.5152 57.7727 57C62.803 59.4545 66.697 62.9394 69.4545 67.4545C72.2121 71.9394 73.6061 77.2121 73.6364 83.2727H50.3636C50.0303 79.6061 48.9697 76.8182 47.1818 74.9091C45.4242 72.9697 43.1515 72 40.3636 72C38.1818 72 36.2727 72.6364 34.6364 73.9091C33 75.1515 31.7273 77.0455 30.8182 79.5909C29.9091 82.1061 29.4545 85.2727 29.4545 89.0909C29.4545 92.9091 29.9091 96.0909 30.8182 98.6364C31.7273 101.152 33 103.045 34.6364 104.318C36.2727 105.561 38.1818 106.182 40.3636 106.182C42.2121 106.182 43.8485 105.758 45.2727 104.909C46.697 104.03 47.8485 102.758 48.7273 101.091C49.6364 99.3939 50.1818 97.3333 50.3636 94.9091H73.6364C73.5455 101.061 72.1364 106.424 69.4091 111C66.6818 115.545 62.8182 119.061 57.8182 121.545C52.8485 124.03 46.9091 125.273 40 125.273ZM117.625 125.273C110.049 125.273 103.564 123.773 98.1705 120.773C92.7765 117.742 88.6402 113.53 85.7614 108.136C82.8826 102.712 81.4432 96.4242 81.4432 89.2727C81.4432 82.1212 82.8826 75.8485 85.7614 70.4545C88.6402 65.0303 92.7765 60.8182 98.1705 57.8182C103.564 54.7879 110.049 53.2727 117.625 53.2727C125.201 53.2727 131.686 54.7879 137.08 57.8182C142.473 60.8182 146.61 65.0303 149.489 70.4545C152.367 75.8485 153.807 82.1212 153.807 89.2727C153.807 96.4242 152.367 102.712 149.489 108.136C146.61 113.53 142.473 117.742 137.08 120.773C131.686 123.773 125.201 125.273 117.625 125.273ZM117.807 106.727C119.928 106.727 121.761 106.015 123.307 104.591C124.852 103.167 126.049 101.136 126.898 98.5C127.746 95.8636 128.17 92.7273 128.17 89.0909C128.17 85.4242 127.746 82.2879 126.898 79.6818C126.049 77.0455 124.852 75.0152 123.307 73.5909C121.761 72.1667 119.928 71.4545 117.807 71.4545C115.564 71.4545 113.64 72.1667 112.034 73.5909C110.428 75.0152 109.201 77.0455 108.352 79.6818C107.504 82.2879 107.08 85.4242 107.08 89.0909C107.08 92.7273 107.504 95.8636 108.352 98.5C109.201 101.136 110.428 103.167 112.034 104.591C113.64 106.015 115.564 106.727 117.807 106.727ZM209.261 93.4545V54.1818H234.352V124H210.534V110.727H209.807C208.292 115.182 205.64 118.667 201.852 121.182C198.064 123.667 193.564 124.909 188.352 124.909C183.473 124.909 179.201 123.788 175.534 121.545C171.898 119.303 169.064 116.212 167.034 112.273C165.034 108.333 164.019 103.818 163.989 98.7273V54.1818H189.08V93.4545C189.11 96.9091 189.989 99.6212 191.716 101.591C193.473 103.561 195.928 104.545 199.08 104.545C201.17 104.545 202.973 104.106 204.489 103.227C206.034 102.318 207.216 101.045 208.034 99.4091C208.883 97.7424 209.292 95.7576 209.261 93.4545ZM272.205 84.7273V124H247.114V54.1818H270.932V67.4545H271.659C273.174 63.0303 275.841 59.5606 279.659 57.0455C283.508 54.5303 287.992 53.2727 293.114 53.2727C298.053 53.2727 302.341 54.4091 305.977 56.6818C309.644 58.9242 312.477 62.0151 314.477 65.9545C316.508 69.8939 317.508 74.3939 317.477 79.4545V124H292.386V84.7273C292.417 81.2727 291.538 78.5606 289.75 76.5909C287.992 74.6212 285.538 73.6364 282.386 73.6364C280.326 73.6364 278.523 74.0909 276.977 75C275.462 75.8788 274.295 77.1515 273.477 78.8182C272.659 80.4545 272.235 82.4242 272.205 84.7273ZM371.5 54.1818V72.3636H325.5V54.1818H371.5ZM334.409 37.4545H359.5V101.545C359.5 102.515 359.667 103.333 360 104C360.333 104.636 360.848 105.121 361.545 105.455C362.242 105.758 363.136 105.909 364.227 105.909C364.985 105.909 365.864 105.818 366.864 105.636C367.894 105.455 368.652 105.303 369.136 105.182L372.773 122.818C371.652 123.152 370.045 123.561 367.955 124.045C365.894 124.53 363.439 124.848 360.591 125C354.833 125.303 350 124.712 346.091 123.227C342.182 121.712 339.242 119.333 337.273 116.091C335.303 112.848 334.348 108.788 334.409 103.909V37.4545ZM517.375 125.273C509.799 125.273 503.314 123.773 497.92 120.773C492.527 117.742 488.39 113.53 485.511 108.136C482.633 102.712 481.193 96.4242 481.193 89.2727C481.193 82.1212 482.633 75.8485 485.511 70.4545C488.39 65.0303 492.527 60.8182 497.92 57.8182C503.314 54.7879 509.799 53.2727 517.375 53.2727C524.951 53.2727 531.436 54.7879 536.83 57.8182C542.223 60.8182 546.36 65.0303 549.239 70.4545C552.117 75.8485 553.557 82.1212 553.557 89.2727C553.557 96.4242 552.117 102.712 549.239 108.136C546.36 113.53 542.223 117.742 536.83 120.773C531.436 123.773 524.951 125.273 517.375 125.273ZM517.557 106.727C519.678 106.727 521.511 106.015 523.057 104.591C524.602 103.167 525.799 101.136 526.648 98.5C527.496 95.8636 527.92 92.7273 527.92 89.0909C527.92 85.4242 527.496 82.2879 526.648 79.6818C525.799 77.0455 524.602 75.0152 523.057 73.5909C521.511 72.1667 519.678 71.4545 517.557 71.4545C515.314 71.4545 513.39 72.1667 511.784 73.5909C510.178 75.0152 508.951 77.0455 508.102 79.6818C507.254 82.2879 506.83 85.4242 506.83 89.0909C506.83 92.7273 507.254 95.8636 508.102 98.5C508.951 101.136 510.178 103.167 511.784 104.591C513.39 106.015 515.314 106.727 517.557 106.727ZM563.739 124V54.1818H588.83V124H563.739ZM576.284 46.9091C572.89 46.9091 569.981 45.7879 567.557 43.5455C565.133 41.303 563.92 38.6061 563.92 35.4545C563.92 32.303 565.133 29.6061 567.557 27.3636C569.981 25.1212 572.89 24 576.284 24C579.708 24 582.617 25.1212 585.011 27.3636C587.436 29.6061 588.648 32.303 588.648 35.4545C588.648 38.6061 587.436 41.303 585.011 43.5455C582.617 45.7879 579.708 46.9091 576.284 46.9091ZM626.705 84.7273V124H601.614V54.1818H625.432V67.4545H626.159C627.674 63.0303 630.341 59.5606 634.159 57.0455C638.008 54.5303 642.492 53.2727 647.614 53.2727C652.553 53.2727 656.841 54.4091 660.477 56.6818C664.144 58.9242 666.977 62.0151 668.977 65.9545C671.008 69.8939 672.008 74.3939 671.977 79.4545V124H646.886V84.7273C646.917 81.2727 646.038 78.5606 644.25 76.5909C642.492 74.6212 640.038 73.6364 636.886 73.6364C634.826 73.6364 633.023 74.0909 631.477 75C629.962 75.8788 628.795 77.1515 627.977 78.8182C627.159 80.4545 626.735 82.4242 626.705 84.7273Z" fill="#286CA1"/>
<path d="M439.275 131.803C446.202 131.803 453.289 130.23 460.535 127.086C467.827 123.896 473.592 119.225 477.83 113.072C477.83 112.48 477.557 111.979 477.01 111.568C476.508 111.158 475.939 110.953 475.301 110.953C468.465 119.247 458.416 123.395 445.154 123.395C431.163 123.395 420.59 119.179 413.436 110.748C406.326 102.271 402.771 91.7441 402.771 79.166C402.771 73.4694 403.387 67.9779 404.617 62.6914C405.893 57.3594 407.853 52.278 410.496 47.4473C413.185 42.571 416.99 38.6289 421.912 35.6211C426.88 32.6133 432.667 31.1094 439.275 31.1094C443.787 31.1094 447.957 31.8158 451.785 33.2285C455.613 34.6413 458.758 36.3047 461.219 38.2188C463.68 40.1328 466.072 42.7077 468.396 45.9434C470.766 49.1335 472.544 51.9134 473.729 54.2832C474.959 56.6074 476.417 59.5697 478.104 63.1699C479.471 62.9876 480.314 62.4863 480.633 61.666C477.26 48.1309 472.156 38.8568 465.32 33.8438C458.53 28.7852 449.848 26.2559 439.275 26.2559C434.992 26.2559 430.617 26.7799 426.15 27.8281C421.684 28.8307 417.081 30.6536 412.342 33.2969C407.648 35.8945 403.501 39.1302 399.9 43.0039C396.3 46.832 393.338 51.8906 391.014 58.1797C388.689 64.4232 387.527 71.4186 387.527 79.166C387.527 86.9134 388.689 93.9089 391.014 100.152C393.338 106.396 396.3 111.432 399.9 115.26C403.501 119.088 407.648 122.301 412.342 124.898C417.081 127.451 421.684 129.228 426.15 130.23C430.617 131.279 434.992 131.803 439.275 131.803ZM476.395 66.2461C474.435 61.8711 472.635 58.2708 470.994 55.4453C469.354 52.5742 467.166 49.3841 464.432 45.875C461.697 42.3203 458.439 39.5632 454.656 37.6035C450.874 35.6439 446.635 34.459 441.941 34.0488C436.746 34.459 432.212 36.1224 428.338 39.0391C424.464 41.9102 421.456 45.6016 419.314 50.1133C417.218 54.625 415.669 59.319 414.666 64.1953C413.709 69.026 413.23 74.0163 413.23 79.166C413.23 90.6504 416.124 100.289 421.912 108.082C427.7 115.875 436.336 120.045 447.82 120.592C458.94 120.045 467.667 115.898 474.002 108.15C475.779 108.15 477.329 108.743 478.65 109.928C479.972 111.067 480.633 112.434 480.633 114.029C476.03 120.729 469.809 125.833 461.971 129.342C454.132 132.851 446.567 134.605 439.275 134.605C434.718 134.605 430.092 134.059 425.398 132.965C420.75 131.917 415.919 130.048 410.906 127.359C405.939 124.625 401.541 121.23 397.713 117.174C393.885 113.118 390.763 107.809 388.348 101.246C385.932 94.638 384.725 87.278 384.725 79.166C384.725 70.6895 385.978 63.1243 388.484 56.4707C390.991 49.7715 394.204 44.4167 398.123 40.4062C402.042 36.3958 406.622 33.069 411.863 30.4258C417.104 27.737 422.186 25.9141 427.107 24.957C432.075 23.9544 437.065 23.4531 442.078 23.4531C448.914 23.4531 456.342 24.3646 464.363 26.1875C472.384 28.0104 478.126 29.1497 481.59 29.6055C480.086 35.4844 479.493 40.6569 479.812 45.123C480.132 49.5436 481.43 54.9668 483.709 61.3926C482.387 64.0814 479.949 65.6992 476.395 66.2461Z" fill="#286CA1"/>
</g>
<defs>
<clipPath id="clip0_1_4">
<rect width="692" height="150" fill="white"/>
</clipPath>
</defs>
</svg>
